<?xml version="1.0" encoding="UTF-8" standalone="no"?>
<!-- Created with Inkscape (http://www.inkscape.org/) -->

<svg
   width="512"
   height="512"
   viewBox="0 0 135.46666 135.46667"
   version="1.1"
   id="svg1"
   inkscape:version="1.4 (e7c3feb100, 2024-10-09)"
   xml:space="preserve"
   sodipodi:docname="dice.svg"
   xmlns:inkscape="http://www.inkscape.org/namespaces/inkscape"
   xmlns:sodipodi="http://sodipodi.sourceforge.net/DTD/sodipodi-0.dtd"
   xmlns="http://www.w3.org/2000/svg"
   xmlns:svg="http://www.w3.org/2000/svg"><sodipodi:namedview
     id="namedview1"
     pagecolor="#c3c3c3"
     bordercolor="#000000"
     borderopacity="0.25"
     inkscape:showpageshadow="2"
     inkscape:pageopacity="0.0"
     inkscape:pagecheckerboard="true"
     inkscape:deskcolor="#959595"
     inkscape:document-units="px"
     showgrid="true"
     inkscape:zoom="8"
     inkscape:cx="79.0625"
     inkscape:cy="224.5625"
     inkscape:window-width="1680"
     inkscape:window-height="978"
     inkscape:window-x="0"
     inkscape:window-y="0"
     inkscape:window-maximized="1"
     inkscape:current-layer="layer2"><inkscape:grid
       id="grid1"
       units="px"
       originx="0"
       originy="0"
       spacingx="16.933333"
       spacingy="16.933332"
       empcolor="#0099e5"
       empopacity="0.30196078"
       color="#0099e5"
       opacity="0.52156863"
       empspacing="1"
       enabled="true"
       visible="true" /></sodipodi:namedview><defs
     id="defs1" /><g
     inkscape:groupmode="layer"
     id="layer2"
     inkscape:label="Layer 2"><path
       style="fill:#000000;fill-opacity:1;stroke-width:1.125"
       d="m 20.637501,22.225 c 0,-0.873125 0.714375,-1.587499 1.5875,-1.587499 0.873125,0 1.5875,0.714374 1.5875,1.587499 0,0.873126 -0.714375,1.5875 -1.5875,1.5875 -0.873125,0 -1.5875,-0.714374 -1.5875,-1.5875 z"
       id="path21-0-1" /><path
       style="fill:#000000;fill-opacity:1;stroke-width:1.125"
       d="m 94.720833,22.225 c 0,-0.873125 0.714375,-1.587499 1.5875,-1.587499 0.873125,0 1.5875,0.714374 1.5875,1.587499 0,0.873126 -0.714375,1.5875 -1.5875,1.5875 -0.873125,0 -1.5875,-0.714374 -1.5875,-1.5875 z"
       id="path20-7-7" /><path
       style="fill:#000000;fill-opacity:1;stroke-width:1.125"
       d="m 88.370834,22.225 c 0,-0.873125 0.714375,-1.587499 1.5875,-1.587499 0.873125,0 1.5875,0.714374 1.5875,1.587499 0,0.873126 -0.714375,1.5875 -1.5875,1.5875 -0.873125,0 -1.5875,-0.714374 -1.5875,-1.5875 z"
       id="path19-8-5" /><path
       style="fill:#000000;fill-opacity:1;stroke-width:1.125"
       d="m 77.7875,22.225 c 0,-0.873125 0.714375,-1.587499 1.5875,-1.587499 0.873125,0 1.5875,0.714374 1.5875,1.587499 0,0.873126 -0.714375,1.5875 -1.5875,1.5875 -0.873125,0 -1.5875,-0.714374 -1.5875,-1.5875 z"
       id="path18-6-9" /><path
       style="fill:#000000;fill-opacity:1;stroke-width:1.125"
       d="m 71.437501,22.225 c 0,-0.873125 0.714374,-1.587499 1.5875,-1.587499 0.873125,0 1.587499,0.714374 1.587499,1.587499 0,0.873126 -0.714374,1.5875 -1.587499,1.5875 -0.873126,0 -1.5875,-0.714374 -1.5875,-1.5875 z"
       id="path17-8-6" /><path
       style="fill:#000000;fill-opacity:1;stroke-width:1.125"
       d="m 60.854167,22.225 c 0,-0.873125 0.714375,-1.587499 1.5875,-1.587499 0.873125,0 1.5875,0.714374 1.5875,1.587499 0,0.873126 -0.714375,1.5875 -1.5875,1.5875 -0.873125,0 -1.5875,-0.714374 -1.5875,-1.5875 z"
       id="path16-8-2" /><path
       style="fill:#000000;fill-opacity:1;stroke-width:1.125"
       d="m 54.504168,22.225 c 0,-0.873125 0.714374,-1.587499 1.5875,-1.587499 0.873125,0 1.587499,0.714374 1.587499,1.587499 0,0.873126 -0.714374,1.5875 -1.587499,1.5875 -0.873126,0 -1.5875,-0.714374 -1.5875,-1.5875 z"
       id="path15-4-1" /><path
       style="fill:#000000;fill-opacity:1;stroke-width:1.125"
       d="m 43.920834,22.225 c 0,-0.873125 0.714375,-1.587499 1.5875,-1.587499 0.873125,0 1.5875,0.714374 1.5875,1.587499 0,0.873126 -0.714375,1.5875 -1.5875,1.5875 -0.873125,0 -1.5875,-0.714374 -1.5875,-1.5875 z"
       id="path14-3-7" /><path
       style="fill:#000000;fill-opacity:1;stroke-width:1.125"
       d="m 94.720833,25.399999 c 0,-0.873125 0.714375,-1.5875 1.5875,-1.5875 0.873125,0 1.5875,0.714375 1.5875,1.5875 0,0.873125 -0.714375,1.5875 -1.5875,1.5875 -0.873125,0 -1.5875,-0.714375 -1.5875,-1.5875 z"
       id="path13-1-8" /><path
       style="fill:#000000;fill-opacity:1;stroke-width:1.125"
       d="m 88.370833,25.4 c 0,-0.873125 0.714375,-1.587499 1.5875,-1.587499 0.873125,0 1.5875,0.714374 1.5875,1.587499 0,0.873126 -0.714375,1.5875 -1.5875,1.5875 -0.873125,0 -1.5875,-0.714374 -1.5875,-1.5875 z"
       id="path12-4-5" /><path
       style="fill:#000000;fill-opacity:1;stroke-width:1.125"
       d="m 74.6125,25.399999 c 0,-0.873125 0.714375,-1.5875 1.5875,-1.5875 0.873125,0 1.5875,0.714375 1.5875,1.5875 0,0.873125 -0.714375,1.5875 -1.5875,1.5875 -0.873125,0 -1.5875,-0.714375 -1.5875,-1.5875 z"
       id="path11-9-7" /><path
       style="fill:#000000;fill-opacity:1;stroke-width:1.125"
       d="m 40.745834,25.399999 c 0,-0.873125 0.714375,-1.5875 1.5875,-1.5875 0.873125,0 1.5875,0.714375 1.5875,1.5875 0,0.873125 -0.714375,1.5875 -1.5875,1.5875 -0.873125,0 -1.5875,-0.714375 -1.5875,-1.5875 z"
       id="path10-2-4" /><path
       style="fill:#000000;fill-opacity:1;stroke-width:1.125"
       d="m 6.8791668,25.399999 c 0,-0.873125 0.7143749,-1.5875 1.5875007,-1.5875 0.8731244,0 1.5874995,0.714375 1.5874995,1.5875 0,0.873125 -0.7143751,1.5875 -1.5874995,1.5875 -0.8731258,0 -1.5875007,-0.714375 -1.5875007,-1.5875 z"
       id="path9-0-1" /><path
       style="fill:#000000;fill-opacity:1;stroke-width:1.125"
       d="m 94.720833,28.575 c 0,-0.873125 0.714375,-1.5875 1.5875,-1.5875 0.873125,0 1.5875,0.714375 1.5875,1.5875 0,0.873125 -0.714375,1.5875 -1.5875,1.5875 -0.873125,0 -1.5875,-0.714375 -1.5875,-1.5875 z"
       id="path8-6-8" /><path
       style="fill:#000000;fill-opacity:1;stroke-width:1.125"
       d="m 88.370834,28.575 c 0,-0.873125 0.714375,-1.5875 1.5875,-1.5875 0.873125,0 1.5875,0.714375 1.5875,1.5875 0,0.873125 -0.714375,1.5875 -1.5875,1.5875 -0.873125,0 -1.5875,-0.714375 -1.5875,-1.5875 z"
       id="path7-8-5" /><path
       style="fill:#000000;fill-opacity:1;stroke-width:1.125"
       d="m 77.7875,28.575 c 0,-0.873125 0.714375,-1.5875 1.5875,-1.5875 0.873125,0 1.5875,0.714375 1.5875,1.5875 0,0.873125 -0.714375,1.5875 -1.5875,1.5875 -0.873125,0 -1.5875,-0.714375 -1.5875,-1.5875 z"
       id="path6-9-9" /><path
       style="fill:#000000;fill-opacity:1;stroke-width:1.125"
       d="m 71.437501,28.575 c 0,-0.873125 0.714374,-1.5875 1.5875,-1.5875 0.873125,0 1.587499,0.714375 1.587499,1.5875 0,0.873125 -0.714374,1.5875 -1.587499,1.5875 -0.873126,0 -1.5875,-0.714375 -1.5875,-1.5875 z"
       id="path5-2-7" /><path
       style="fill:#000000;fill-opacity:1;stroke-width:1.125"
       d="m 60.854167,28.575 c 0,-0.873125 0.714375,-1.5875 1.5875,-1.5875 0.873125,0 1.5875,0.714375 1.5875,1.5875 0,0.873125 -0.714375,1.5875 -1.5875,1.5875 -0.873125,0 -1.5875,-0.714375 -1.5875,-1.5875 z"
       id="path4-6-5" /><path
       style="fill:#000000;fill-opacity:1;stroke-width:1.125"
       d="m 54.504168,28.575 c 0,-0.873125 0.714374,-1.5875 1.5875,-1.5875 0.873125,0 1.587499,0.714375 1.587499,1.5875 0,0.873125 -0.714374,1.5875 -1.587499,1.5875 -0.873126,0 -1.5875,-0.714375 -1.5875,-1.5875 z"
       id="path3-6-3" /><path
       style="fill:#000000;fill-opacity:1;stroke-width:1.125"
       d="m 37.570834,28.575 c 0,-0.873125 0.714374,-1.5875 1.587499,-1.5875 0.873126,0 1.5875,0.714375 1.5875,1.5875 0,0.873125 -0.714374,1.5875 -1.5875,1.5875 -0.873125,0 -1.587499,-0.714375 -1.587499,-1.5875 z"
       id="path2-4-8" /><path
       style="fill:#000000;fill-opacity:1;stroke-width:1.125"
       d="m 26.987501,28.575 c 0,-0.873125 0.714375,-1.5875 1.5875,-1.5875 0.873125,0 1.5875,0.714375 1.5875,1.5875 0,0.873125 -0.714375,1.5875 -1.5875,1.5875 -0.873125,0 -1.5875,-0.714375 -1.5875,-1.5875 z"
       id="path1-9-8" /><path
       style="display:inline;fill:#ffffff;fill-opacity:1;stroke-width:0.750094;stroke-dasharray:none"
       d="m 8.4005207,34.428906 -3.5718749,0.926041 -2.0835938,3.604948 -1.1244791,10.682552 3.0757812,-2.711979 1.8190104,2.38125 2.4143229,-2.083594 2.2158856,1.984375 1.5875,-2.116666 2.083593,2.215885 -0.661458,-10.417968 -2.678906,-3.538803 z"
       id="path760" /><path
       style="display:inline;fill:#000000;fill-opacity:1;stroke-width:0.750094;stroke-dasharray:none"
       d="M 4.8643053,39.499095 6.9924389,41.931248 6.8053502,43.708589 4.2562671,42.282038 Z"
       id="path759" /><path
       style="display:inline;fill:#000000;fill-opacity:1;stroke-width:0.750094;stroke-dasharray:none"
       d="M 12.044284,39.533887 9.9161515,41.96604 10.103239,43.743381 12.652323,42.31683 Z"
       id="path759-4" /><rect
       style="display:inline;fill:#1a1a1a;fill-opacity:1;stroke-width:4.48402;stroke-dasharray:none"
       id="rect760"
       width="16.933332"
       height="16.933332"
       x="-6.9388939e-18"
       y="50.799999" /><rect
       style="display:inline;fill:#808080;fill-opacity:1;stroke-width:0.899964;stroke-dasharray:none"
       id="rect761"
       width="16.933332"
       height="16.933332"
       x="16.933332"
       y="50.799999" /><path
       style="fill:#ff0000;fill-opacity:1;stroke-width:0.750094;stroke-dasharray:none"
       d="m 8.5328175,122.66745 -1.62057,-2.41433 -3.175,-0.56223 -2.57969,3.14192 1.5875,5.15938 5.58932,6.28385 6.5153705,-6.35 0.99218,-5.19245 -3.37343,-3.20807 -2.9104205,0.82682 z"
       id="path888" /><path
       style="fill:#ff0000;fill-opacity:1;stroke-width:0.750094;stroke-dasharray:none"
       d="m 25.326478,122.65691 -1.62057,-2.41433 -3.175,-0.56224 -2.57969,3.14193 1.5875,5.15937 5.58932,6.28386 6.51536,-6.35 0.99219,-5.19245 -3.37343,-3.20807 -2.91042,0.82682 z"
       id="path888-3" /><path
       style="fill:#000000;fill-opacity:1;stroke-width:0.540067;stroke-dasharray:none"
       d="m 25.285768,124.7517 -1.37517,-2.18479 -2.43483,-1.14896 -1.67878,2.38125 1.35136,3.86358 4.02431,4.52438 4.69106,-4.572 0.89297,-3.94693 -2.22051,-2.33957 -2.09551,1.22039 z"
       id="path888-3-5"
       sodipodi:nodetypes="ccccccccccc" /><path
       style="fill:#262626;fill-opacity:1;stroke-width:0.194609;stroke-dasharray:none"
       d="M 4.5310728,55.510766 5.9125544,54.20651 7.5600354,54.978767 7.9375829,56.549022 6.5818436,57.61302 4.2993957,56.986634 Z"
       id="path896" /><rect
       style="fill:#999999;fill-opacity:1;stroke-width:0.750094;stroke-dasharray:none"
       id="rect897"
       width="5.0932293"
       height="2.5135417"
       x="23.8125"
       y="58.009895" /><path
       style="fill:#262626;fill-opacity:1;stroke-width:0.166459;stroke-dasharray:none"
       d="m 8.5473823,57.457985 1.5095677,0.60172 -0.0055,1.556302 L 8.9693656,60.4747 7.655455,59.806376 7.3189377,57.810061 Z"
       id="path902" /><path
       style="fill:#262626;fill-opacity:1;stroke-width:0.142872;stroke-dasharray:none"
       d="m 6.1342194,59.375221 -0.7263106,1.190778 -1.316096,-0.228513 -0.5709312,-1.039145 0.754522,-1.01564 1.7376157,0.0024 z"
       id="path903" /><path
       style="fill:#262626;fill-opacity:1;stroke-width:0.207835;stroke-dasharray:none"
       d="M 7.656413,61.427081 8.4554097,63.292147 7.0747558,64.659494 5.3615733,64.459964 4.7939615,62.709146 6.2621163,60.651538 Z"
       id="path904" /><path
       style="fill:#262626;fill-opacity:1;stroke-width:0.103557;stroke-dasharray:none"
       d="m 9.7708312,62.605487 -0.172648,-0.996137 0.8267238,-0.503941 0.807561,0.293941 0.07363,0.914115 -0.948602,0.828498 z"
       id="path905" /><path
       style="fill:#262626;fill-opacity:1;stroke-width:0.115366;stroke-dasharray:none"
       d="m 9.1188817,55.253536 1.0790673,-0.32266 0.666729,0.847874 -0.218392,0.932153 -1.0014274,0.202287 -1.0418541,-0.939787 z"
       id="path906" /><path
       style="fill:#262626;fill-opacity:1;stroke-width:0.125372;stroke-dasharray:none"
       d="m 12.61303,58.214333 0.451352,1.05945 -0.955988,0.712856 -1.11351,-0.166206 -0.304312,-0.988626 1.039728,-1.092513 z"
       id="path907" /><path
       style="fill:#262626;fill-opacity:1;stroke-width:0.185788;stroke-dasharray:none"
       d="M 3.8014553,61.413318 3.894374,63.224704 2.3133595,63.944172 0.93835161,63.246681 1.0041283,61.602713 2.8721309,60.331439 Z"
       id="path908" /><path
       style="fill:#262626;fill-opacity:1;stroke-width:0.184477;stroke-dasharray:none"
       d="M 2.9140438,56.12665 3.9151549,57.62373 2.9333633,59.041786 1.4060623,59.14691 0.62545965,57.711801 1.5710976,55.677221 Z"
       id="path909" /><path
       style="fill:#262626;fill-opacity:1;stroke-width:0.213075;stroke-dasharray:none"
       d="m 14.358346,61.200944 1.156306,1.729161 -1.133991,1.637886 -1.764067,0.121421 -0.901614,-1.657583 1.092233,-2.349986 z"
       id="path910" /><path
       style="fill:#262626;fill-opacity:1;stroke-width:0.166459;stroke-dasharray:none"
       d="m 9.3804927,63.947929 1.5780763,-0.387992 0.900278,1.269491 -0.381245,1.327748 -1.457598,0.220053 -1.4343629,-1.428678 z"
       id="path911" /><path
       style="fill:#262626;fill-opacity:1;stroke-width:0.166459;stroke-dasharray:none"
       d="M 2.617401,64.638988 3.3543188,66.087371 2.3230002,67.252914 0.94333062,67.183811 0.39736165,65.814529 1.462156,64.09269 Z"
       id="path912" /><path
       style="fill:#262626;fill-opacity:1;stroke-width:0.0936491;stroke-dasharray:none"
       d="m 4.0148886,64.015934 0.8333538,0.376015 -0.042089,0.87456 L 4.1764646,65.72201 3.4547472,65.313463 3.3156369,64.18303 Z"
       id="path913" /><path
       style="fill:#262626;fill-opacity:1;stroke-width:0.142872;stroke-dasharray:none"
       d="m 4.8904595,66.351107 0.591894,-1.262989 1.3331817,0.08339 0.6810225,0.970563 -0.6390671,1.091981 -1.7274806,0.187417 z"
       id="path914" /><path
       style="fill:#262626;fill-opacity:1;stroke-width:0.142872;stroke-dasharray:none"
       d="m 11.81274,55.757211 0.591894,-1.262989 1.333182,0.08339 0.681022,0.970563 -0.639067,1.091981 -1.72748,0.187417 z"
       id="path915" /><path
       style="fill:#262626;fill-opacity:1;stroke-width:0.125372;stroke-dasharray:none"
       d="m 3.8238751,53.511379 0.451352,1.05945 -0.955988,0.712856 -1.11351,-0.166206 -0.304312,-0.988626 1.039728,-1.092513 z"
       id="path916" /><path
       style="fill:#262626;fill-opacity:1;stroke-width:0.103557;stroke-dasharray:none"
       d="m 0.90728967,53.047414 -0.172648,-0.996137 0.82672383,-0.503941 0.807561,0.293941 0.07363,0.914115 -0.948602,0.828498 z"
       id="path917" /><path
       style="fill:#262626;fill-opacity:1;stroke-width:0.142872;stroke-dasharray:none"
       d="m 9.838386,53.389023 -0.7263106,1.190778 -1.316096,-0.228513 -0.5709312,-1.039145 0.754522,-1.01564 1.7376157,0.0024 z"
       id="path918" /><path
       style="fill:#262626;fill-opacity:1;stroke-width:0.166459;stroke-dasharray:none"
       d="m 4.2211178,51.512513 1.5780763,-0.387992 0.900278,1.269491 -0.381245,1.327748 -1.457598,0.220053 -1.4343629,-1.428678 z"
       id="path919" /><path
       style="fill:#262626;fill-opacity:1;stroke-width:0.185788;stroke-dasharray:none"
       d="m 16.170726,57.907589 0.09292,1.811386 -1.581015,0.719468 -1.375008,-0.697491 0.06578,-1.643968 1.868003,-1.271274 z"
       id="path920" /><path
       style="fill:#262626;fill-opacity:1;stroke-width:0.142872;stroke-dasharray:none"
       d="m 12.110396,66.340544 0.591894,-1.262989 1.333182,0.08339 0.681022,0.970563 -0.639067,1.091981 -1.72748,0.187417 z"
       id="path921" /><path
       style="fill:#262626;fill-opacity:1;stroke-width:0.166459;stroke-dasharray:none"
       d="m 10.93492,51.578658 1.578076,-0.387992 0.900278,1.269491 -0.381245,1.327748 -1.457598,0.220053 -1.434363,-1.428678 z"
       id="path922" /><path
       style="fill:#262626;fill-opacity:1;stroke-width:0.0936491;stroke-dasharray:none"
       d="m 14.366711,52.638851 0.833354,0.376015 -0.04209,0.87456 -0.629689,0.455501 -0.721717,-0.408547 -0.13911,-1.130433 z"
       id="path923" /><path
       style="fill:#262626;fill-opacity:1;stroke-width:0.103557;stroke-dasharray:none"
       d="m 14.963279,65.383612 -0.172648,-0.996137 0.826724,-0.503941 0.807561,0.293941 0.07363,0.914115 -0.948602,0.828498 z"
       id="path924" /><rect
       style="fill:#999999;fill-opacity:1;stroke-width:0.750094;stroke-dasharray:none"
       id="rect924"
       width="5.0932293"
       height="2.5135417"
       x="18.057812"
       y="58.042969" /><rect
       style="fill:#999999;fill-opacity:1;stroke-width:0.750094;stroke-dasharray:none"
       id="rect927"
       width="5.0932293"
       height="2.5135417"
       x="26.954428"
       y="60.953384" /><rect
       style="fill:#999999;fill-opacity:1;stroke-width:0.750094;stroke-dasharray:none"
       id="rect928"
       width="5.0932293"
       height="2.5135417"
       x="21.199739"
       y="60.986458" /><rect
       style="fill:#999999;fill-opacity:1;stroke-width:0.750094;stroke-dasharray:none"
       id="rect929"
       width="5.0932293"
       height="2.5135417"
       x="23.713282"
       y="51.990623" /><rect
       style="fill:#999999;fill-opacity:1;stroke-width:0.750094;stroke-dasharray:none"
       id="rect930"
       width="5.0932293"
       height="2.5135417"
       x="17.958593"
       y="52.023697" /><rect
       style="fill:#999999;fill-opacity:1;stroke-width:0.750094;stroke-dasharray:none"
       id="rect931"
       width="5.0932293"
       height="2.5135417"
       x="26.855209"
       y="54.934113" /><rect
       style="fill:#999999;fill-opacity:1;stroke-width:0.750094;stroke-dasharray:none"
       id="rect932"
       width="5.0932293"
       height="2.5135417"
       x="21.100521"
       y="54.967186" /><rect
       style="fill:#999999;fill-opacity:1;stroke-width:0.750094;stroke-dasharray:none"
       id="rect933"
       width="5.0932293"
       height="2.5135417"
       x="23.911718"
       y="64.029167" /><rect
       style="fill:#999999;fill-opacity:1;stroke-width:0.750094;stroke-dasharray:none"
       id="rect934"
       width="5.0932293"
       height="2.5135417"
       x="18.15703"
       y="64.062241" /><rect
       style="fill:#999999;fill-opacity:1;stroke-width:0.651005;stroke-dasharray:none"
       id="rect935"
       width="3.8364584"
       height="2.5135417"
       x="29.501041"
       y="58.076042" /><rect
       style="fill:#999999;fill-opacity:1;stroke-width:0.651005;stroke-dasharray:none"
       id="rect936"
       width="3.8364584"
       height="2.5135417"
       x="29.335676"
       y="51.92448" /><rect
       style="fill:#999999;fill-opacity:1;stroke-width:0.651005;stroke-dasharray:none"
       id="rect937"
       width="3.8364584"
       height="2.5135417"
       x="29.633333"
       y="64.029167" /><rect
       style="fill:#999999;fill-opacity:1;stroke-width:0.79086;stroke-dasharray:none"
       id="rect940"
       width="3.2080729"
       height="2.3711843"
       x="17.396353"
       y="55.000259" /><rect
       style="fill:#999999;fill-opacity:1;stroke-width:0.79086;stroke-dasharray:none"
       id="rect941"
       width="3.2080729"
       height="2.3711843"
       x="17.396353"
       y="61.052605" /></g><g
     inkscape:label="Layer 1"
     inkscape:groupmode="layer"
     id="layer1"><rect
       style="fill:#ffffff;fill-opacity:1;stroke-width:0.264583;stroke-dasharray:none"
       id="rect1"
       width="12.7"
       height="12.700084"
       x="2.1166666"
       y="2.1166666"
       ry="2.1208005" /><rect
       style="fill:#ffffff;fill-opacity:1;stroke-width:0.264583;stroke-dasharray:none"
       id="rect1-3"
       width="12.7"
       height="12.700084"
       x="19.049999"
       y="2.1166666"
       ry="2.1208005" /><rect
       style="fill:#ffffff;fill-opacity:1;stroke-width:0.264583;stroke-dasharray:none"
       id="rect1-1"
       width="12.7"
       height="12.700084"
       x="35.983334"
       y="2.1166666"
       ry="2.1208005" /><rect
       style="fill:#ffffff;fill-opacity:1;stroke-width:0.264583;stroke-dasharray:none"
       id="rect1-3-5"
       width="12.7"
       height="12.700084"
       x="52.916664"
       y="2.1166666"
       ry="2.1208005" /><rect
       style="fill:#ffffff;fill-opacity:1;stroke-width:0.264583;stroke-dasharray:none"
       id="rect1-6"
       width="12.7"
       height="12.700084"
       x="69.849998"
       y="2.1166666"
       ry="2.1208005" /><rect
       style="fill:#ffffff;fill-opacity:1;stroke-width:0.264583;stroke-dasharray:none"
       id="rect1-3-56"
       width="12.7"
       height="12.700084"
       x="86.783333"
       y="2.1166666"
       ry="2.1208005" /><path
       style="fill:#000000;stroke-width:0.75"
       d="m 21.166667,5.2916666 c 0,-0.5820833 0.47625,-1.0583333 1.058333,-1.0583333 0.582083,0 1.058333,0.47625 1.058333,1.0583333 C 23.283333,5.87375 22.807083,6.35 22.225,6.35 21.642917,6.35 21.166667,5.87375 21.166667,5.2916666 Z"
       id="path21" /><path
       style="fill:#000000;stroke-width:0.75"
       d="m 95.249999,5.2916666 c 0,-0.5820833 0.47625,-1.0583333 1.058333,-1.0583333 0.582083,0 1.058333,0.47625 1.058333,1.0583333 0,0.5820834 -0.47625,1.0583334 -1.058333,1.0583334 -0.582083,0 -1.058333,-0.47625 -1.058333,-1.0583334 z"
       id="path20" /><path
       style="fill:#000000;stroke-width:0.75"
       d="m 88.9,5.2916666 c 0,-0.5820833 0.47625,-1.0583333 1.058333,-1.0583333 0.582083,0 1.058333,0.47625 1.058333,1.0583333 C 91.016666,5.87375 90.540416,6.35 89.958333,6.35 89.37625,6.35 88.9,5.87375 88.9,5.2916666 Z"
       id="path19" /><path
       style="fill:#000000;stroke-width:0.75"
       d="m 78.316666,5.2916666 c 0,-0.5820833 0.47625,-1.0583333 1.058333,-1.0583333 0.582083,0 1.058333,0.47625 1.058333,1.0583333 0,0.5820834 -0.47625,1.0583334 -1.058333,1.0583334 -0.582083,0 -1.058333,-0.47625 -1.058333,-1.0583334 z"
       id="path18" /><path
       style="fill:#000000;stroke-width:0.75"
       d="m 71.966666,5.2916666 c 0,-0.5820833 0.47625,-1.0583333 1.058334,-1.0583333 0.582083,0 1.058333,0.47625 1.058333,1.0583333 C 74.083333,5.87375 73.607083,6.35 73.025,6.35 72.442916,6.35 71.966666,5.87375 71.966666,5.2916666 Z"
       id="path17" /><path
       style="fill:#000000;stroke-width:0.75"
       d="m 61.383333,5.2916666 c 0,-0.5820833 0.47625,-1.0583333 1.058333,-1.0583333 0.582083,0 1.058333,0.47625 1.058333,1.0583333 0,0.5820834 -0.47625,1.0583334 -1.058333,1.0583334 -0.582083,0 -1.058333,-0.47625 -1.058333,-1.0583334 z"
       id="path16" /><path
       style="fill:#000000;stroke-width:0.75"
       d="m 55.033333,5.2916666 c 0,-0.5820833 0.47625,-1.0583333 1.058334,-1.0583333 0.582083,0 1.058333,0.47625 1.058333,1.0583333 C 57.15,5.87375 56.67375,6.35 56.091667,6.35 55.509583,6.35 55.033333,5.87375 55.033333,5.2916666 Z"
       id="path15" /><path
       style="fill:#000000;stroke-width:0.75"
       d="m 44.45,5.2916666 c 0,-0.5820833 0.47625,-1.0583333 1.058333,-1.0583333 0.582083,0 1.058333,0.47625 1.058333,1.0583333 C 46.566666,5.87375 46.090416,6.35 45.508333,6.35 44.92625,6.35 44.45,5.87375 44.45,5.2916666 Z"
       id="path14" /><path
       style="fill:#000000;stroke-width:0.75"
       d="m 95.249999,8.4666653 c 0,-0.5820834 0.47625,-1.0583334 1.058333,-1.0583334 0.582083,0 1.058333,0.47625 1.058333,1.0583334 0,0.5820833 -0.47625,1.0583333 -1.058333,1.0583333 -0.582083,0 -1.058333,-0.47625 -1.058333,-1.0583333 z"
       id="path13" /><path
       style="fill:#000000;stroke-width:0.75"
       d="m 88.899999,8.4666666 c 0,-0.5820834 0.47625,-1.0583334 1.058333,-1.0583334 0.582083,0 1.058333,0.47625 1.058333,1.0583334 0,0.5820833 -0.47625,1.0583333 -1.058333,1.0583333 -0.582083,0 -1.058333,-0.47625 -1.058333,-1.0583333 z"
       id="path12" /><path
       style="fill:#000000;stroke-width:0.75"
       d="m 75.141666,8.4666653 c 0,-0.5820834 0.47625,-1.0583334 1.058333,-1.0583334 0.582083,0 1.058333,0.47625 1.058333,1.0583334 0,0.5820833 -0.47625,1.0583333 -1.058333,1.0583333 -0.582083,0 -1.058333,-0.47625 -1.058333,-1.0583333 z"
       id="path11" /><path
       style="fill:#000000;stroke-width:0.75"
       d="m 41.275,8.4666653 c 0,-0.5820834 0.47625,-1.0583334 1.058333,-1.0583334 0.582083,0 1.058333,0.47625 1.058333,1.0583334 0,0.5820833 -0.47625,1.0583333 -1.058333,1.0583333 -0.582083,0 -1.058333,-0.47625 -1.058333,-1.0583333 z"
       id="path10" /><path
       style="fill:#000000;stroke-width:0.75"
       d="m 7.4083332,8.4666653 c 0,-0.5820834 0.47625,-1.0583334 1.0583333,-1.0583334 0.5820833,0 1.0583333,0.47625 1.0583333,1.0583334 0,0.5820833 -0.47625,1.0583333 -1.0583333,1.0583333 -0.5820833,0 -1.0583333,-0.47625 -1.0583333,-1.0583333 z"
       id="path9" /><path
       style="fill:#000000;stroke-width:0.75"
       d="m 95.249999,11.641667 c 0,-0.582083 0.47625,-1.058333 1.058333,-1.058333 0.582083,0 1.058333,0.47625 1.058333,1.058333 0,0.582083 -0.47625,1.058333 -1.058333,1.058333 -0.582083,0 -1.058333,-0.47625 -1.058333,-1.058333 z"
       id="path8" /><path
       style="fill:#000000;stroke-width:0.75"
       d="m 88.9,11.641667 c 0,-0.582083 0.47625,-1.058333 1.058333,-1.058333 0.582083,0 1.058333,0.47625 1.058333,1.058333 0,0.582083 -0.47625,1.058333 -1.058333,1.058333 C 89.37625,12.7 88.9,12.22375 88.9,11.641667 Z"
       id="path7" /><path
       style="fill:#000000;stroke-width:0.75"
       d="m 78.316666,11.641667 c 0,-0.582083 0.47625,-1.058333 1.058333,-1.058333 0.582083,0 1.058333,0.47625 1.058333,1.058333 0,0.582083 -0.47625,1.058333 -1.058333,1.058333 -0.582083,0 -1.058333,-0.47625 -1.058333,-1.058333 z"
       id="path6" /><path
       style="fill:#000000;stroke-width:0.75"
       d="m 71.966666,11.641667 c 0,-0.582083 0.47625,-1.058333 1.058334,-1.058333 0.582083,0 1.058333,0.47625 1.058333,1.058333 0,0.582083 -0.47625,1.058333 -1.058333,1.058333 -0.582084,0 -1.058334,-0.47625 -1.058334,-1.058333 z"
       id="path5" /><path
       style="fill:#000000;stroke-width:0.75"
       d="m 61.383333,11.641667 c 0,-0.582083 0.47625,-1.058333 1.058333,-1.058333 0.582083,0 1.058333,0.47625 1.058333,1.058333 0,0.582083 -0.47625,1.058333 -1.058333,1.058333 -0.582083,0 -1.058333,-0.47625 -1.058333,-1.058333 z"
       id="path4" /><path
       style="fill:#000000;stroke-width:0.75"
       d="m 55.033333,11.641667 c 0,-0.582083 0.47625,-1.058333 1.058334,-1.058333 0.582083,0 1.058333,0.47625 1.058333,1.058333 0,0.582083 -0.47625,1.058333 -1.058333,1.058333 -0.582084,0 -1.058334,-0.47625 -1.058334,-1.058333 z"
       id="path3" /><path
       style="fill:#000000;stroke-width:0.75"
       d="m 38.099999,11.641667 c 0,-0.582083 0.47625,-1.058333 1.058333,-1.058333 0.582084,0 1.058334,0.47625 1.058334,1.058333 0,0.582083 -0.47625,1.058333 -1.058334,1.058333 -0.582083,0 -1.058333,-0.47625 -1.058333,-1.058333 z"
       id="path2" /><path
       style="fill:#000000;stroke-width:0.75"
       d="m 27.516667,11.641667 c 0,-0.582083 0.47625,-1.058333 1.058333,-1.058333 0.582083,0 1.058333,0.47625 1.058333,1.058333 0,0.582083 -0.47625,1.058333 -1.058333,1.058333 -0.582083,0 -1.058333,-0.47625 -1.058333,-1.058333 z"
       id="path1" /><path
       style="fill:#ffffff;fill-opacity:1;stroke-width:0.75"
       d="m 21.166666,22.225 c 0,-0.582083 0.47625,-1.058333 1.058333,-1.058333 0.582083,0 1.058333,0.47625 1.058333,1.058333 0,0.582084 -0.47625,1.058334 -1.058333,1.058334 -0.582083,0 -1.058333,-0.47625 -1.058333,-1.058334 z"
       id="path21-0" /><path
       style="fill:#ffffff;fill-opacity:1;stroke-width:0.75"
       d="m 95.249998,22.225 c 0,-0.582083 0.47625,-1.058333 1.058333,-1.058333 0.582083,0 1.058333,0.47625 1.058333,1.058333 0,0.582084 -0.47625,1.058334 -1.058333,1.058334 -0.582083,0 -1.058333,-0.47625 -1.058333,-1.058334 z"
       id="path20-7" /><path
       style="fill:#ffffff;fill-opacity:1;stroke-width:0.75"
       d="m 88.899999,22.225 c 0,-0.582083 0.47625,-1.058333 1.058333,-1.058333 0.582083,0 1.058333,0.47625 1.058333,1.058333 0,0.582084 -0.47625,1.058334 -1.058333,1.058334 -0.582083,0 -1.058333,-0.47625 -1.058333,-1.058334 z"
       id="path19-8" /><path
       style="fill:#ffffff;fill-opacity:1;stroke-width:0.75"
       d="m 78.316665,22.225 c 0,-0.582083 0.47625,-1.058333 1.058333,-1.058333 0.582083,0 1.058333,0.47625 1.058333,1.058333 0,0.582084 -0.47625,1.058334 -1.058333,1.058334 -0.582083,0 -1.058333,-0.47625 -1.058333,-1.058334 z"
       id="path18-6" /><path
       style="fill:#ffffff;fill-opacity:1;stroke-width:0.75"
       d="m 71.966665,22.225 c 0,-0.582083 0.47625,-1.058333 1.058334,-1.058333 0.582083,0 1.058333,0.47625 1.058333,1.058333 0,0.582084 -0.47625,1.058334 -1.058333,1.058334 -0.582084,0 -1.058334,-0.47625 -1.058334,-1.058334 z"
       id="path17-8" /><path
       style="fill:#ffffff;fill-opacity:1;stroke-width:0.75"
       d="m 61.383332,22.225 c 0,-0.582083 0.47625,-1.058333 1.058333,-1.058333 0.582083,0 1.058333,0.47625 1.058333,1.058333 0,0.582084 -0.47625,1.058334 -1.058333,1.058334 -0.582083,0 -1.058333,-0.47625 -1.058333,-1.058334 z"
       id="path16-8" /><path
       style="fill:#ffffff;fill-opacity:1;stroke-width:0.75"
       d="m 55.033332,22.225 c 0,-0.582083 0.47625,-1.058333 1.058334,-1.058333 0.582083,0 1.058333,0.47625 1.058333,1.058333 0,0.582084 -0.47625,1.058334 -1.058333,1.058334 -0.582084,0 -1.058334,-0.47625 -1.058334,-1.058334 z"
       id="path15-4" /><path
       style="fill:#ffffff;fill-opacity:1;stroke-width:0.75"
       d="m 44.449999,22.225 c 0,-0.582083 0.47625,-1.058333 1.058333,-1.058333 0.582083,0 1.058333,0.47625 1.058333,1.058333 0,0.582084 -0.47625,1.058334 -1.058333,1.058334 -0.582083,0 -1.058333,-0.47625 -1.058333,-1.058334 z"
       id="path14-3" /><path
       style="fill:#ffffff;fill-opacity:1;stroke-width:0.75"
       d="m 95.249998,25.399999 c 0,-0.582083 0.47625,-1.058333 1.058333,-1.058333 0.582083,0 1.058333,0.47625 1.058333,1.058333 0,0.582083 -0.47625,1.058333 -1.058333,1.058333 -0.582083,0 -1.058333,-0.47625 -1.058333,-1.058333 z"
       id="path13-1" /><path
       style="fill:#ffffff;fill-opacity:1;stroke-width:0.75"
       d="m 88.899998,25.4 c 0,-0.582083 0.47625,-1.058333 1.058333,-1.058333 0.582083,0 1.058333,0.47625 1.058333,1.058333 0,0.582084 -0.47625,1.058334 -1.058333,1.058334 -0.582083,0 -1.058333,-0.47625 -1.058333,-1.058334 z"
       id="path12-4" /><path
       style="fill:#ffffff;fill-opacity:1;stroke-width:0.75"
       d="m 75.141665,25.399999 c 0,-0.582083 0.47625,-1.058333 1.058333,-1.058333 0.582083,0 1.058333,0.47625 1.058333,1.058333 0,0.582083 -0.47625,1.058333 -1.058333,1.058333 -0.582083,0 -1.058333,-0.47625 -1.058333,-1.058333 z"
       id="path11-9" /><path
       style="fill:#ffffff;fill-opacity:1;stroke-width:0.75"
       d="m 41.274999,25.399999 c 0,-0.582083 0.47625,-1.058333 1.058333,-1.058333 0.582083,0 1.058333,0.47625 1.058333,1.058333 0,0.582083 -0.47625,1.058333 -1.058333,1.058333 -0.582083,0 -1.058333,-0.47625 -1.058333,-1.058333 z"
       id="path10-2" /><path
       style="fill:#ffffff;fill-opacity:1;stroke-width:0.75"
       d="m 7.4083316,25.399999 c 0,-0.582083 0.47625,-1.058333 1.058334,-1.058333 0.582083,0 1.058333,0.47625 1.058333,1.058333 0,0.582083 -0.47625,1.058333 -1.058333,1.058333 -0.582084,0 -1.058334,-0.47625 -1.058334,-1.058333 z"
       id="path9-0" /><path
       style="fill:#ffffff;fill-opacity:1;stroke-width:0.75"
       d="m 95.249998,28.575 c 0,-0.582083 0.47625,-1.058333 1.058333,-1.058333 0.582083,0 1.058333,0.47625 1.058333,1.058333 0,0.582083 -0.47625,1.058333 -1.058333,1.058333 -0.582083,0 -1.058333,-0.47625 -1.058333,-1.058333 z"
       id="path8-6" /><path
       style="fill:#ffffff;fill-opacity:1;stroke-width:0.75"
       d="m 88.899999,28.575 c 0,-0.582083 0.47625,-1.058333 1.058333,-1.058333 0.582083,0 1.058333,0.47625 1.058333,1.058333 0,0.582083 -0.47625,1.058333 -1.058333,1.058333 -0.582083,0 -1.058333,-0.47625 -1.058333,-1.058333 z"
       id="path7-8" /><path
       style="fill:#ffffff;fill-opacity:1;stroke-width:0.75"
       d="m 78.316665,28.575 c 0,-0.582083 0.47625,-1.058333 1.058333,-1.058333 0.582083,0 1.058333,0.47625 1.058333,1.058333 0,0.582083 -0.47625,1.058333 -1.058333,1.058333 -0.582083,0 -1.058333,-0.47625 -1.058333,-1.058333 z"
       id="path6-9" /><path
       style="fill:#ffffff;fill-opacity:1;stroke-width:0.75"
       d="m 71.966665,28.575 c 0,-0.582083 0.47625,-1.058333 1.058334,-1.058333 0.582083,0 1.058333,0.47625 1.058333,1.058333 0,0.582083 -0.47625,1.058333 -1.058333,1.058333 -0.582084,0 -1.058334,-0.47625 -1.058334,-1.058333 z"
       id="path5-2" /><path
       style="fill:#ffffff;fill-opacity:1;stroke-width:0.75"
       d="m 61.383332,28.575 c 0,-0.582083 0.47625,-1.058333 1.058333,-1.058333 0.582083,0 1.058333,0.47625 1.058333,1.058333 0,0.582083 -0.47625,1.058333 -1.058333,1.058333 -0.582083,0 -1.058333,-0.47625 -1.058333,-1.058333 z"
       id="path4-6" /><path
       style="fill:#ffffff;fill-opacity:1;stroke-width:0.75"
       d="m 55.033332,28.575 c 0,-0.582083 0.47625,-1.058333 1.058334,-1.058333 0.582083,0 1.058333,0.47625 1.058333,1.058333 0,0.582083 -0.47625,1.058333 -1.058333,1.058333 -0.582084,0 -1.058334,-0.47625 -1.058334,-1.058333 z"
       id="path3-6" /><path
       style="fill:#ffffff;fill-opacity:1;stroke-width:0.75"
       d="m 38.099998,28.575 c 0,-0.582083 0.47625,-1.058333 1.058333,-1.058333 0.582084,0 1.058334,0.47625 1.058334,1.058333 0,0.582083 -0.47625,1.058333 -1.058334,1.058333 -0.582083,0 -1.058333,-0.47625 -1.058333,-1.058333 z"
       id="path2-4" /><path
       style="fill:#ffffff;fill-opacity:1;stroke-width:0.75"
       d="m 27.516666,28.575 c 0,-0.582083 0.47625,-1.058333 1.058333,-1.058333 0.582083,0 1.058333,0.47625 1.058333,1.058333 0,0.582083 -0.47625,1.058333 -1.058333,1.058333 -0.582083,0 -1.058333,-0.47625 -1.058333,-1.058333 z"
       id="path1-9" /><path
       style="fill:#ffffff;fill-opacity:1;stroke-width:0.750094;stroke-dasharray:none"
       d="m 109.82105,19.266564 c 0,0 2.38816,2.48718 20.50042,-14.3495474 C 113.59078,22.996338 116.35052,25.76385 116.35052,25.76385 Z"
       id="path894"
       sodipodi:nodetypes="cccc" /><path
       style="fill:#ffffff;fill-opacity:1;stroke-width:0.750094;stroke-dasharray:none"
       d="m 115.0938,36.942447 c 0,0 1.14095,4.499658 20.08143,4.959987 -18.8347,0.537828 -20.20557,6.080382 -20.20557,6.080382 z"
       id="path895"
       sodipodi:nodetypes="cccc" /></g><g
     inkscape:groupmode="layer"
     id="layer3"
     inkscape:label="Attack References"
     style="display:none"><rect
       style="fill:#000000;fill-opacity:1;stroke-width:0.264583;stroke-dasharray:none"
       id="rect888"
       width="12.7"
       height="12.700084"
       x="103.71667"
       y="35.983334"
       ry="2.1208005" /><rect
       style="fill:#000000;fill-opacity:1;stroke-width:0.264583;stroke-dasharray:none"
       id="rect1-9"
       width="12.7"
       height="12.700084"
       x="103.71667"
       y="19.049999"
       ry="2.1208005" /></g></svg>
